<?xml version="1.0" encoding="UTF-8"?>
<svg xmlns="http://www.w3.org/2000/svg" xmlns:xlink="http://www.w3.org/1999/xlink" width="24pt" height="24pt" viewBox="0 0 24 24" version="1.1">
<g id="surface5243410">
<rect x="0" y="0" width="24" height="24" style="fill:rgb(0%,0%,100%);fill-opacity:1;stroke:none;"/>
<path style=" stroke:none;fill-rule:nonzero;fill:rgb(0%,0%,0%);fill-opacity:1;" d="M 0.8125 0 C 0.414062 0 0 0.414062 0 0.8125 L 0 23.1875 C 0 23.585938 0.414062 24 0.8125 24 L 23.1875 24 C 23.585938 24 24 23.585938 24 23.1875 L 24 0.8125 C 24 0.414062 23.585938 0 23.1875 0 Z M 10 4 C 13.300781 4 16 6.699219 16 10 C 16 11.300781 15.605469 12.5 14.90625 13.5 L 20.09375 18.6875 C 20.195312 18.789062 20.1875 19.1875 19.6875 19.6875 C 19.1875 20.1875 18.789062 20.195312 18.6875 20.09375 L 13.5 14.90625 C 12.5 15.605469 11.300781 16 10 16 C 6.699219 16 4 13.300781 4 10 C 4 6.699219 6.699219 4 10 4 Z M 10 6 C 7.789062 6 6 7.789062 6 10 C 6 12.210938 7.789062 14 10 14 C 12.210938 14 14 12.210938 14 10 C 14 7.789062 12.210938 6 10 6 Z M 10 6 "/>
</g>
</svg>
